<?xml version="1.0" encoding="UTF-8" standalone="no"?>
<svg
   xmlns:dc="http://purl.org/dc/elements/1.1/"
   xmlns:cc="http://creativecommons.org/ns#"
   xmlns:rdf="http://www.w3.org/1999/02/22-rdf-syntax-ns#"
   xmlns:svg="http://www.w3.org/2000/svg"
   xmlns="http://www.w3.org/2000/svg"
   xmlns:sodipodi="http://sodipodi.sourceforge.net/DTD/sodipodi-0.dtd"
   xmlns:inkscape="http://www.inkscape.org/namespaces/inkscape"
   class="converse-svg-logo"
   viewBox="0 0 373.34201 85.67231"
   version="1.1"
   id="svg13"
   sodipodi:docname="logo_text.svg"
   inkscape:version="0.92.3 (2405546, 2018-03-11)"
   width="373.34201"
   height="85.67231">
  <metadata
     id="metadata19">
    <rdf:RDF>
      <cc:Work
         rdf:about="">
        <dc:format>image/svg+xml</dc:format>
        <dc:type
           rdf:resource="http://purl.org/dc/dcmitype/StillImage" />
        <dc:title>Converse</dc:title>
      </cc:Work>
    </rdf:RDF>
  </metadata>
  <defs
     id="defs17">
    <inkscape:perspective
       sodipodi:type="inkscape:persp3d"
       inkscape:vp_x="0 : 0.5 : 1"
       inkscape:vp_y="0 : 2.7472528 : 0"
       inkscape:vp_z="1 : 0.5 : 1"
       inkscape:persp3d-origin="0.5 : 0.33333332 : 1"
       id="perspective2147" />
  </defs>
  <sodipodi:namedview
     pagecolor="#ffffff"
     bordercolor="#666666"
     borderopacity="1"
     objecttolerance="10"
     gridtolerance="10"
     guidetolerance="10"
     inkscape:pageopacity="0"
     inkscape:pageshadow="2"
     inkscape:window-width="1272"
     inkscape:window-height="657"
     id="namedview15"
     showgrid="false"
     inkscape:zoom="1.8338154"
     inkscape:cx="59.019021"
     inkscape:cy="22.033848"
     inkscape:window-x="0"
     inkscape:window-y="0"
     inkscape:window-maximized="0"
     inkscape:current-layer="svg13"
     fit-margin-top="0"
     fit-margin-left="20"
     fit-margin-right="20"
     fit-margin-bottom="0" />
  <title
     id="title2">Converse</title>
  <g
     class="cls-1"
     id="g904"
     transform="matrix(0.2441072,0,0,0.2441072,18.921493,-1.0130449)">
    <g
       data-name="Layer 2"
       id="g10">
      <g
         data-name="Layer 7"
         id="g8">
        <path
           class="cls-3"
           d="m 221.46,103.71 c 0,18.83 -29.36,18.83 -29.12,0 -0.24,-18.83 29.12,-18.83 29.12,0 z"
           id="path4"
           inkscape:connector-curvature="0" />
        <path
           class="cls-4"
           d="M 179.9,4.15 C 108.92504,4.15 44.938239,46.904566 17.778836,112.4757 -9.3805118,178.0467 5.6365472,253.52014 55.823205,303.70679 106.00986,353.89345 181.4833,368.91051 247.0543,341.75116 312.62543,314.59176 355.38,250.60496 355.38,179.63 355.38,82.715072 276.81493,4.15 179.9,4.15 Z m -40.79,264.5 c -0.23,-17.82 27.58,-17.82 27.58,0 0,17.82 -27.81,17.83 -27.58,0 z M 218.6,168.24 c -4.29711,2.32859 -8.79944,4.25673 -13.45,5.76 -2.53177,0.85328 -12.23498,3.26952 -13.79313,5.4398 C 180.90809,189.252 165.08,221.2 165.08,221.2 v -35.8 c -0.003,-1.6153 -1.4729,-2.83052 -3.06,-2.53 -15.43,3 -30.23,7.7 -42.73,19.94 -38.8,38 -29.025098,103.71549 16.4849,131.18549 C 98.17801,323.32071 65.725789,295.74404 44.332966,263.03587 -3.4370336,176.59587 35.058475,51.159326 138.92848,29.569326 185.81848,19.819326 256.62,30.82 262.1,88.49 c 3.05,32.15 -15.54,64.4 -43.5,79.75 z"
           id="path6"
           inkscape:connector-curvature="0"
           sodipodi:nodetypes="sssssscsccccccccccccc" />
      </g>
    </g>
  </g>
  <g
     aria-label="converse.js"
     style="font-style:normal;font-variant:normal;font-weight:normal;font-stretch:normal;font-size:50.63063431px;line-height:125%;font-family:sans-serif;-inkscape-font-specification:'sans-serif, Normal';font-variant-ligatures:normal;font-variant-caps:normal;font-variant-numeric:normal;font-feature-settings:normal;text-align:start;letter-spacing:0px;word-spacing:0px;writing-mode:lr-tb;text-anchor:start;fill:#000000;fill-opacity:1;stroke:none;stroke-width:2.10960984px;stroke-linecap:butt;stroke-linejoin:miter;stroke-opacity:1"
     id="text861"
     transform="translate(20)">
    <path
       d="m 116.4016,36.946544 3.03784,2.987207 q -3.49352,2.835316 -7.99964,2.835316 -5.62,0 -9.01226,-3.594776 -3.392249,-3.645405 -3.392249,-9.062883 0,-5.316217 3.544149,-8.961622 3.59477,-3.696037 8.86036,-3.696037 4.50612,0 7.99964,2.835316 l -2.98721,3.037838 q -2.12649,-1.62018 -5.01243,-1.62018 -3.49352,0 -5.56937,2.329009 -2.02523,2.278378 -2.02523,6.075676 0,3.797298 2.02523,6.126307 2.07585,2.278378 5.56937,2.278378 2.93657,0 4.9618,-1.569549 z"
       style="font-style:normal;font-variant:normal;font-weight:normal;font-stretch:normal;font-size:50.63063431px;font-family:Baumans;-inkscape-font-specification:'Baumans, Normal';font-variant-ligatures:normal;font-variant-caps:normal;font-variant-numeric:normal;font-feature-settings:normal;text-align:start;writing-mode:lr-tb;text-anchor:start;stroke-width:2.10960984px"
       id="path60"
       inkscape:connector-curvature="0" />
    <path
       d="m 126.51032,21.149786 q 3.54414,-3.696037 8.86036,-3.696037 2.58216,0 4.80991,1.012613 2.27838,0.961982 3.94919,2.683424 1.72144,1.721441 2.68342,4.05045 0.96199,2.278379 0.96199,4.911172 0,2.632793 -0.96199,4.961802 -0.91135,2.278379 -2.58216,3.99982 -1.67081,1.721442 -3.94919,2.734054 -2.27838,0.961983 -4.91117,0.961983 -2.68342,0 -4.9618,-0.961983 -2.22775,-1.012612 -3.89856,-2.734054 -1.67081,-1.721441 -2.63279,-3.99982 -0.91135,-2.329009 -0.91135,-4.961802 0,-5.366847 3.54414,-8.961622 z m 8.86036,0.556937 q -3.54414,0 -5.72126,2.329009 -2.12649,2.329009 -2.12649,6.075676 0,3.746667 2.12649,6.075676 2.17712,2.329009 5.72126,2.329009 3.59478,0 5.72126,-2.329009 2.12649,-2.37964 2.12649,-6.075676 0,-3.696036 -2.12649,-6.025046 -2.12648,-2.379639 -5.72126,-2.379639 z"
       style="font-style:normal;font-variant:normal;font-weight:normal;font-stretch:normal;font-size:50.63063431px;font-family:Baumans;-inkscape-font-specification:'Baumans, Normal';font-variant-ligatures:normal;font-variant-caps:normal;font-variant-numeric:normal;font-feature-settings:normal;text-align:start;writing-mode:lr-tb;text-anchor:start;stroke-width:2.10960984px"
       id="path62"
       inkscape:connector-curvature="0" />
    <path
       d="m 153.34851,17.960056 h 8.7591 q 5.62,0 8.05027,1.670811 2.17712,1.468288 2.73406,3.544144 0.60757,2.025225 0.60757,5.366847 V 42.26276 h -4.4555 V 28.592489 q 0,-0.911352 -0.0506,-1.518919 -0.0506,-0.658198 -0.35442,-1.62018 -0.30378,-1.012613 -0.86072,-1.620181 -0.55693,-0.658198 -1.62018,-1.113874 -1.06324,-0.506306 -2.58216,-0.506306 h -5.77189 V 42.26276 h -4.4555 z"
       style="font-style:normal;font-variant:normal;font-weight:normal;font-stretch:normal;font-size:50.63063431px;font-family:Baumans;-inkscape-font-specification:'Baumans, Normal';font-variant-ligatures:normal;font-variant-caps:normal;font-variant-numeric:normal;font-feature-settings:normal;text-align:start;writing-mode:lr-tb;text-anchor:start;stroke-width:2.10960984px"
       id="path64"
       inkscape:connector-curvature="0" />
    <path
       d="m 188.3058,42.819697 q -4.35423,-4.101081 -6.43009,-9.062883 -2.02522,-4.961803 -4.05045,-15.796758 h 4.65802 q 1.97459,12.201983 5.82252,18.480181 3.84793,-6.278198 5.82252,-18.480181 h 4.65802 q -2.02522,10.834955 -4.10108,15.796758 -2.02522,4.961802 -6.37946,9.062883 z"
       style="font-style:normal;font-variant:normal;font-weight:normal;font-stretch:normal;font-size:50.63063431px;font-family:Baumans;-inkscape-font-specification:'Baumans, Normal';font-variant-ligatures:normal;font-variant-caps:normal;font-variant-numeric:normal;font-feature-settings:normal;text-align:start;writing-mode:lr-tb;text-anchor:start;stroke-width:2.10960984px"
       id="path66"
       inkscape:connector-curvature="0" />
    <path
       d="m 215.03086,17.453749 q 8.60721,0.354415 8.60721,7.13892 0,8.455316 -11.08811,8.455316 h -2.07585 v -3.898559 h 2.43027 q 3.39225,0 4.70865,-1.012613 1.31639,-1.063243 1.31639,-3.493514 0,-1.569549 -1.1645,-2.329009 -1.16451,-0.81009 -2.98721,-0.81009 -3.59478,0 -5.67063,2.531532 -2.02523,2.531532 -2.02523,6.075676 0,3.746667 2.17712,6.075676 2.22775,2.329009 5.77189,2.329009 3.18973,0 5.21496,-1.569549 l 3.03784,2.987207 q -3.49352,2.835316 -8.2528,2.835316 -5.77189,0 -9.21477,-3.392253 -3.44289,-3.392252 -3.44289,-8.7591 0,-5.974415 3.39226,-9.670451 3.39225,-3.696036 9.2654,-3.493514 z"
       style="font-style:normal;font-variant:normal;font-weight:normal;font-stretch:normal;font-size:50.63063431px;font-family:Baumans;-inkscape-font-specification:'Baumans, Normal';font-variant-ligatures:normal;font-variant-caps:normal;font-variant-numeric:normal;font-feature-settings:normal;text-align:start;writing-mode:lr-tb;text-anchor:start;stroke-width:2.10960984px"
       id="path68"
       inkscape:connector-curvature="0" />
    <path
       d="M 227.98518,42.26276 V 28.440597 q 0,-5.822523 2.17712,-8.050271 1.06324,-1.113874 2.58216,-1.670811 1.51892,-0.556937 2.63279,-0.658198 1.16451,-0.101261 3.1391,-0.101261 h 4.4555 v 4.252973 H 237.605 q -1.01261,0 -1.56955,0.05063 -0.55694,0.05063 -1.31639,0.354414 -0.75946,0.303784 -1.3164,0.961982 -0.96198,1.215135 -0.96198,4.860541 V 42.26276 Z"
       style="font-style:normal;font-variant:normal;font-weight:normal;font-stretch:normal;font-size:50.63063431px;font-family:Baumans;-inkscape-font-specification:'Baumans, Normal';font-variant-ligatures:normal;font-variant-caps:normal;font-variant-numeric:normal;font-feature-settings:normal;text-align:start;writing-mode:lr-tb;text-anchor:start;stroke-width:2.10960984px"
       id="path70"
       inkscape:connector-curvature="0" />
    <path
       d="m 263.10782,17.960056 v 4.252973 h -8.96163 q -1.46829,0 -2.53153,0.556937 -1.06324,0.556937 -1.06324,1.56955 0,0.607567 0.25315,1.113874 0.25315,0.455675 0.55694,0.759459 0.35441,0.303784 1.01261,0.658198 0.70883,0.303784 1.06324,0.455676 0.40505,0.101261 3.24036,1.012613 2.83532,0.911351 4.20235,1.518919 1.36702,0.607567 2.07585,1.670811 0.75946,1.012612 0.96199,2.025225 0.20252,0.961982 0.20252,1.923964 0,6.784505 -9.31604,6.784505 h -8.7591 v -4.252973 h 8.7591 q 4.75928,0 4.75928,-2.531532 0,-1.215135 -1.41766,-2.025225 -1.36702,-0.81009 -3.39225,-1.367027 -1.97459,-0.556937 -3.99982,-1.265766 -1.97459,-0.75946 -3.39225,-2.37964 -1.36703,-1.670811 -1.36703,-4.101081 0,-3.088469 2.37964,-4.708649 2.37964,-1.670811 5.77189,-1.670811 z"
       style="font-style:normal;font-variant:normal;font-weight:normal;font-stretch:normal;font-size:50.63063431px;font-family:Baumans;-inkscape-font-specification:'Baumans, Normal';font-variant-ligatures:normal;font-variant-caps:normal;font-variant-numeric:normal;font-feature-settings:normal;text-align:start;writing-mode:lr-tb;text-anchor:start;stroke-width:2.10960984px"
       id="path72"
       inkscape:connector-curvature="0" />
    <path
       d="m 281.08801,17.453749 q 8.60721,0.354415 8.60721,7.13892 0,8.455316 -11.08811,8.455316 h -2.07585 v -3.898559 h 2.43027 q 3.39225,0 4.70865,-1.012613 1.31639,-1.063243 1.31639,-3.493514 0,-1.569549 -1.1645,-2.329009 -1.16451,-0.81009 -2.98721,-0.81009 -3.59477,0 -5.67063,2.531532 -2.02522,2.531532 -2.02522,6.075676 0,3.746667 2.17711,6.075676 2.22775,2.329009 5.77189,2.329009 3.18973,0 5.21496,-1.569549 l 3.03784,2.987207 q -3.49352,2.835316 -8.2528,2.835316 -5.77189,0 -9.21477,-3.392253 -3.44288,-3.392252 -3.44288,-8.7591 0,-5.974415 3.39225,-9.670451 3.39225,-3.696036 9.2654,-3.493514 z"
       style="font-style:normal;font-variant:normal;font-weight:normal;font-stretch:normal;font-size:50.63063431px;font-family:Baumans;-inkscape-font-specification:'Baumans, Normal';font-variant-ligatures:normal;font-variant-caps:normal;font-variant-numeric:normal;font-feature-settings:normal;text-align:start;writing-mode:lr-tb;text-anchor:start;stroke-width:2.10960984px"
       id="path74"
       inkscape:connector-curvature="0" />
    <path
       d="m 293.18162,41.857715 q -0.91135,-0.911351 -0.91135,-2.227748 0,-1.316396 0.91135,-2.227748 0.91135,-0.911351 2.22775,-0.911351 1.31639,0 2.22775,0.911351 0.91135,0.911352 0.91135,2.227748 0,1.316397 -0.91135,2.227748 -0.91136,0.911352 -2.22775,0.911352 -1.3164,0 -2.22775,-0.911352 z"
       style="fill:#a2a2a2;fill-opacity:1;stroke-width:2.10960984px"
       id="path76"
       inkscape:connector-curvature="0" />
    <path
       d="m 308.67064,17.960056 v 26.226668 q 0,5.265586 -2.32901,7.442704 -2.32901,2.177117 -7.99964,2.177117 v -4.252973 q 1.41766,0 2.27838,-0.151892 0.91135,-0.151892 1.8227,-0.658199 0.91136,-0.455675 1.3164,-1.62018 0.45568,-1.113874 0.45568,-2.936577 V 22.213029 h -4.15172 l 2.02523,-4.252973 z m -4.65802,-5.063064 q -0.65819,-0.860721 -0.65819,-1.873333 0,-1.012613 0.65819,-1.822703 0.6582,-0.8607208 2.02523,-0.8607208 1.36703,0 2.02522,0.8607208 0.6582,0.81009 0.6582,1.822703 0,1.012612 -0.6582,1.873333 -0.65819,0.81009 -2.02522,0.81009 -1.36703,0 -2.02523,-0.81009 z"
       style="fill:#a2a2a2;fill-opacity:1;stroke-width:2.10960984px"
       id="path78"
       inkscape:connector-curvature="0" />
    <path
       d="m 332.32939,17.960056 v 4.252973 h -8.96162 q -1.46829,0 -2.53154,0.556937 -1.06324,0.556937 -1.06324,1.56955 0,0.607567 0.25315,1.113874 0.25316,0.455675 0.55694,0.759459 0.35442,0.303784 1.01261,0.658198 0.70883,0.303784 1.06325,0.455676 0.40504,0.101261 3.24036,1.012613 2.83531,0.911351 4.20234,1.518919 1.36703,0.607567 2.07586,1.670811 0.75946,1.012612 0.96198,2.025225 0.20252,0.961982 0.20252,1.923964 0,6.784505 -9.31604,6.784505 h -8.7591 v -4.252973 h 8.7591 q 4.75928,0 4.75928,-2.531532 0,-1.215135 -1.41765,-2.025225 -1.36703,-0.81009 -3.39226,-1.367027 -1.97459,-0.556937 -3.99982,-1.265766 -1.97459,-0.75946 -3.39225,-2.37964 -1.36703,-1.670811 -1.36703,-4.101081 0,-3.088469 2.37964,-4.708649 2.37964,-1.670811 5.7719,-1.670811 z"
       style="fill:#a2a2a2;fill-opacity:1;stroke-width:2.10960984px"
       id="path80"
       inkscape:connector-curvature="0" />
  </g>
  <g
     aria-label="messaging freedom"
     style="font-style:normal;font-variant:normal;font-weight:normal;font-stretch:normal;font-size:18.49652481px;line-height:125%;font-family:sans-serif;-inkscape-font-specification:'sans-serif, Normal';font-variant-ligatures:normal;font-variant-caps:normal;font-variant-numeric:normal;font-feature-settings:normal;text-align:start;letter-spacing:0px;word-spacing:0px;writing-mode:lr-tb;text-anchor:start;fill:#000000;fill-opacity:1;stroke:none;stroke-width:0.77068853px;stroke-linecap:butt;stroke-linejoin:miter;stroke-opacity:1"
     id="text865"
     transform="translate(20)">
    <path
       d="m 123.05993,62.353867 q 3.08892,0 3.08892,3.680809 v 5.844902 h -1.49822 v -5.770916 q 0,-1.313253 -0.46241,-1.905142 -0.44392,-0.591889 -1.46123,-0.591889 -1.18377,0 -1.84965,0.795351 -0.66587,0.79535 -0.66587,2.164093 v 5.308503 h -1.49822 v -5.770916 q 0,-1.294757 -0.46241,-1.886646 -0.46242,-0.610385 -1.47973,-0.610385 -1.18377,0 -1.86815,0.795351 -0.66587,0.79535 -0.66587,2.164093 v 5.308503 h -1.49822 v -6.695742 q 0,-1.442729 -0.14797,-2.60801 h 1.42423 l 0.14797,1.627694 q 0.38843,-0.887833 1.14679,-1.368743 0.77685,-0.48091 1.79416,-0.48091 1.10979,0 1.81266,0.443917 0.70287,0.443917 1.03581,1.368743 0.42542,-0.832344 1.23926,-1.313253 0.83235,-0.499407 1.86815,-0.499407 z"
       style="font-style:normal;font-variant:normal;font-weight:normal;font-stretch:normal;font-size:18.49652481px;font-family:Muli;-inkscape-font-specification:'Muli, Normal';font-variant-ligatures:normal;font-variant-caps:normal;font-variant-numeric:normal;font-feature-settings:normal;text-align:start;writing-mode:lr-tb;text-anchor:start;fill:#484848;fill-opacity:1;stroke-width:0.77068853px"
       id="path83"
       inkscape:connector-curvature="0" />
    <path
       d="m 136.78262,67.18146 h -6.82522 q 0.0185,1.775667 0.81385,2.681996 0.81385,0.90633 2.34906,0.90633 1.62769,0 2.99644,-1.091295 l 0.4994,1.091295 q -0.61038,0.573392 -1.5722,0.90633 -0.94333,0.332937 -1.94214,0.332937 -2.18259,0 -3.42186,-1.27626 -1.23926,-1.294757 -1.23926,-3.532836 0,-1.424233 0.55489,-2.515528 0.5549,-1.109791 1.55371,-1.720176 0.99881,-0.610386 2.27507,-0.610386 1.84966,0 2.90396,1.220771 1.0543,1.202274 1.0543,3.329374 z m -3.93976,-3.662312 q -1.16528,0 -1.90514,0.702868 -0.72137,0.702868 -0.92483,1.979129 h 5.41948 q -0.11098,-1.313254 -0.77685,-1.997625 -0.64738,-0.684372 -1.81266,-0.684372 z"
       style="font-style:normal;font-variant:normal;font-weight:normal;font-stretch:normal;font-size:18.49652481px;font-family:Muli;-inkscape-font-specification:'Muli, Normal';font-variant-ligatures:normal;font-variant-caps:normal;font-variant-numeric:normal;font-feature-settings:normal;text-align:start;writing-mode:lr-tb;text-anchor:start;fill:#484848;fill-opacity:1;stroke-width:0.77068853px"
       id="path85"
       inkscape:connector-curvature="0" />
    <path
       d="m 142.21915,72.009053 q -2.34906,0 -3.7178,-1.202274 l 0.49941,-1.109791 q 0.75836,0.591889 1.53521,0.85084 0.77685,0.258951 1.73867,0.258951 1.0543,0 1.5907,-0.351434 0.5549,-0.36993 0.5549,-1.054302 0,-0.554895 -0.36993,-0.887833 -0.36993,-0.332937 -1.22077,-0.517903 l -1.57221,-0.36993 q -1.16528,-0.258951 -1.81266,-0.924826 -0.62888,-0.665875 -0.62888,-1.590701 0,-1.220771 0.98032,-1.979129 0.98031,-0.776854 2.58951,-0.776854 0.98032,0 1.84965,0.314441 0.86934,0.314441 1.46123,0.90633 l -0.49941,1.091295 q -1.31325,-1.091295 -2.81147,-1.091295 -0.99881,0 -1.55371,0.388427 -0.5364,0.369931 -0.5364,1.054302 0,0.573392 0.33294,0.90633 0.35144,0.332937 1.10979,0.517902 l 1.57221,0.388427 q 1.29476,0.295945 1.92364,0.924827 0.62888,0.610385 0.62888,1.609197 0,1.202274 -0.98032,1.923639 -0.98031,0.721364 -2.6635,0.721364 z"
       style="font-style:normal;font-variant:normal;font-weight:normal;font-stretch:normal;font-size:18.49652481px;font-family:Muli;-inkscape-font-specification:'Muli, Normal';font-variant-ligatures:normal;font-variant-caps:normal;font-variant-numeric:normal;font-feature-settings:normal;text-align:start;writing-mode:lr-tb;text-anchor:start;fill:#484848;fill-opacity:1;stroke-width:0.77068853px"
       id="path87"
       inkscape:connector-curvature="0" />
    <path
       d="m 151.39516,72.009053 q -2.34906,0 -3.7178,-1.202274 l 0.49941,-1.109791 q 0.75836,0.591889 1.53521,0.85084 0.77685,0.258951 1.73867,0.258951 1.05431,0 1.5907,-0.351434 0.5549,-0.36993 0.5549,-1.054302 0,-0.554895 -0.36993,-0.887833 -0.36993,-0.332937 -1.22077,-0.517903 l -1.57221,-0.36993 q -1.16528,-0.258951 -1.81266,-0.924826 -0.62888,-0.665875 -0.62888,-1.590701 0,-1.220771 0.98032,-1.979129 0.98031,-0.776854 2.58951,-0.776854 0.98032,0 1.84965,0.314441 0.86934,0.314441 1.46123,0.90633 l -0.49941,1.091295 q -1.31325,-1.091295 -2.81147,-1.091295 -0.99881,0 -1.55371,0.388427 -0.5364,0.369931 -0.5364,1.054302 0,0.573392 0.33294,0.90633 0.35144,0.332937 1.10979,0.517902 l 1.57221,0.388427 q 1.29476,0.295945 1.92364,0.924827 0.62888,0.610385 0.62888,1.609197 0,1.202274 -0.98032,1.923639 -0.98031,0.721364 -2.6635,0.721364 z"
       style="font-style:normal;font-variant:normal;font-weight:normal;font-stretch:normal;font-size:18.49652481px;font-family:Muli;-inkscape-font-specification:'Muli, Normal';font-variant-ligatures:normal;font-variant-caps:normal;font-variant-numeric:normal;font-feature-settings:normal;text-align:start;writing-mode:lr-tb;text-anchor:start;fill:#484848;fill-opacity:1;stroke-width:0.77068853px"
       id="path89"
       inkscape:connector-curvature="0" />
    <path
       d="m 165.62072,62.575826 v 9.303752 H 164.141 v -1.683184 q -0.40692,0.869337 -1.23926,1.350246 -0.81385,0.462413 -1.90515,0.462413 -1.23926,0 -2.18259,-0.591888 -0.92482,-0.591889 -1.44273,-1.664688 -0.4994,-1.091295 -0.4994,-2.534024 0,-1.442729 0.5179,-2.534024 0.5179,-1.109791 1.44273,-1.720176 0.94332,-0.610386 2.16409,-0.610386 1.0913,0 1.90515,0.48091 0.81384,0.48091 1.23926,1.350246 v -1.609197 z m -4.32818,8.19396 q 1.36874,0 2.1086,-0.924826 0.73986,-0.943323 0.73986,-2.6635 0,-1.720176 -0.73986,-2.645003 -0.73986,-0.924826 -2.1086,-0.924826 -1.36874,0 -2.1456,0.961819 -0.75836,0.943323 -0.75836,2.645003 0,1.701681 0.75836,2.626507 0.75836,0.924826 2.1456,0.924826 z"
       style="font-style:normal;font-variant:normal;font-weight:normal;font-stretch:normal;font-size:18.49652481px;font-family:Muli;-inkscape-font-specification:'Muli, Normal';font-variant-ligatures:normal;font-variant-caps:normal;font-variant-numeric:normal;font-feature-settings:normal;text-align:start;writing-mode:lr-tb;text-anchor:start;fill:#484848;fill-opacity:1;stroke-width:0.77068853px"
       id="path91"
       inkscape:connector-curvature="0" />
    <path
       d="m 176.8039,62.575826 v 9.229766 q 0,2.07161 -1.0728,3.125912 -1.0543,1.072799 -3.12591,1.072799 -2.1271,0 -3.66231,-0.96182 l 0.25895,-1.22077 q 0.88783,0.499406 1.66468,0.721364 0.79535,0.221959 1.73868,0.221959 1.35024,0 2.03461,-0.721365 0.68438,-0.702868 0.68438,-2.108604 v -2.201086 q -0.42542,0.887833 -1.25777,1.387239 -0.81384,0.48091 -1.94213,0.48091 -1.22077,0 -2.18259,-0.573393 -0.94333,-0.573392 -1.46123,-1.627694 -0.5179,-1.054302 -0.5179,-2.423044 0,-1.368743 0.5179,-2.423045 0.5179,-1.054302 1.46123,-1.627694 0.96182,-0.573393 2.18259,-0.573393 1.10979,0 1.92364,0.48091 0.83234,0.48091 1.25776,1.350246 v -1.609197 z m -4.38368,7.76854 q 1.35025,0 2.10861,-0.887833 0.77685,-0.90633 0.77685,-2.478534 0,-1.572205 -0.77685,-2.460038 -0.75836,-0.90633 -2.10861,-0.90633 -1.36874,0 -2.16409,0.90633 -0.77686,0.887833 -0.77686,2.460038 0,1.572204 0.77686,2.478534 0.79535,0.887833 2.16409,0.887833 z"
       style="font-style:normal;font-variant:normal;font-weight:normal;font-stretch:normal;font-size:18.49652481px;font-family:Muli;-inkscape-font-specification:'Muli, Normal';font-variant-ligatures:normal;font-variant-caps:normal;font-variant-numeric:normal;font-feature-settings:normal;text-align:start;writing-mode:lr-tb;text-anchor:start;fill:#484848;fill-opacity:1;stroke-width:0.77068853px"
       id="path93"
       inkscape:connector-curvature="0" />
    <path
       d="m 179.6804,71.879578 v -9.303752 h 1.49822 v 9.303752 z m -0.14797,-13.243512 h 1.83115 v 1.70168 h -1.83115 z"
       style="font-style:normal;font-variant:normal;font-weight:normal;font-stretch:normal;font-size:18.49652481px;font-family:Muli;-inkscape-font-specification:'Muli, Normal';font-variant-ligatures:normal;font-variant-caps:normal;font-variant-numeric:normal;font-feature-settings:normal;text-align:start;writing-mode:lr-tb;text-anchor:start;fill:#484848;fill-opacity:1;stroke-width:0.77068853px"
       id="path95"
       inkscape:connector-curvature="0" />
    <path
       d="m 188.7304,62.353867 q 3.34787,0 3.34787,3.680809 v 5.844902 h -1.49822 v -5.770916 q 0,-1.294757 -0.5179,-1.886646 -0.5179,-0.610385 -1.6277,-0.610385 -1.29475,0 -2.07161,0.795351 -0.77685,0.79535 -0.77685,2.145596 v 5.327 h -1.49822 v -6.695742 q 0,-1.442729 -0.14797,-2.60801 h 1.42423 l 0.14797,1.664687 q 0.42542,-0.90633 1.27626,-1.387239 0.85084,-0.499407 1.94214,-0.499407 z"
       style="font-style:normal;font-variant:normal;font-weight:normal;font-stretch:normal;font-size:18.49652481px;font-family:Muli;-inkscape-font-specification:'Muli, Normal';font-variant-ligatures:normal;font-variant-caps:normal;font-variant-numeric:normal;font-feature-settings:normal;text-align:start;writing-mode:lr-tb;text-anchor:start;fill:#484848;fill-opacity:1;stroke-width:0.77068853px"
       id="path97"
       inkscape:connector-curvature="0" />
    <path
       d="m 203.21202,62.575826 v 9.229766 q 0,2.07161 -1.0728,3.125912 -1.0543,1.072799 -3.12591,1.072799 -2.1271,0 -3.66231,-0.96182 l 0.25895,-1.22077 q 0.88783,0.499406 1.66469,0.721364 0.79535,0.221959 1.73867,0.221959 1.35025,0 2.03462,-0.721365 0.68437,-0.702868 0.68437,-2.108604 v -2.201086 q -0.42542,0.887833 -1.25776,1.387239 -0.81385,0.48091 -1.94214,0.48091 -1.22077,0 -2.18259,-0.573393 -0.94332,-0.573392 -1.46122,-1.627694 -0.51791,-1.054302 -0.51791,-2.423044 0,-1.368743 0.51791,-2.423045 0.5179,-1.054302 1.46122,-1.627694 0.96182,-0.573393 2.18259,-0.573393 1.10979,0 1.92364,0.48091 0.83234,0.48091 1.25776,1.350246 v -1.609197 z m -4.38368,7.76854 q 1.35025,0 2.10861,-0.887833 0.77685,-0.90633 0.77685,-2.478534 0,-1.572205 -0.77685,-2.460038 -0.75836,-0.90633 -2.10861,-0.90633 -1.36874,0 -2.16409,0.90633 -0.77685,0.887833 -0.77685,2.460038 0,1.572204 0.77685,2.478534 0.79535,0.887833 2.16409,0.887833 z"
       style="font-style:normal;font-variant:normal;font-weight:normal;font-stretch:normal;font-size:18.49652481px;font-family:Muli;-inkscape-font-specification:'Muli, Normal';font-variant-ligatures:normal;font-variant-caps:normal;font-variant-numeric:normal;font-feature-settings:normal;text-align:start;writing-mode:lr-tb;text-anchor:start;fill:#484848;fill-opacity:1;stroke-width:0.77068853px"
       id="path99"
       inkscape:connector-curvature="0" />
    <path
       d="m 214.49924,59.486906 q -0.73986,0 -1.16528,0.42542 -0.40693,0.406924 -0.40693,1.424232 v 1.239268 h 2.27508 v 1.183777 h -2.27508 v 8.119975 h -1.49822 v -8.119975 h -1.81266 v -1.183777 h 1.81266 v -1.424233 q 0,-1.461225 0.72137,-2.201086 0.73986,-0.758358 2.05311,-0.758358 0.64738,0 1.25777,0.166469 v 1.27626 q -0.51791,-0.147972 -0.96182,-0.147972 z"
       style="font-style:normal;font-variant:normal;font-weight:normal;font-stretch:normal;font-size:18.49652481px;font-family:Muli;-inkscape-font-specification:'Muli, Normal';font-variant-ligatures:normal;font-variant-caps:normal;font-variant-numeric:normal;font-feature-settings:normal;text-align:start;writing-mode:lr-tb;text-anchor:start;fill:#484848;fill-opacity:1;stroke-width:0.77068853px"
       id="path101"
       inkscape:connector-curvature="0" />
    <path
       d="m 221.5074,62.353867 q 0.46241,0 0.85084,0.11098 l -0.037,1.368742 q -0.42542,-0.147972 -0.98031,-0.147972 -1.35025,0 -2.01612,0.85084 -0.64738,0.832344 -0.64738,2.034618 v 5.308503 h -1.49822 v -6.695742 q 0,-1.442729 -0.14797,-2.60801 h 1.42423 l 0.14797,1.720176 q 0.35144,-0.943322 1.12829,-1.442728 0.77685,-0.499407 1.77567,-0.499407 z"
       style="font-style:normal;font-variant:normal;font-weight:normal;font-stretch:normal;font-size:18.49652481px;font-family:Muli;-inkscape-font-specification:'Muli, Normal';font-variant-ligatures:normal;font-variant-caps:normal;font-variant-numeric:normal;font-feature-settings:normal;text-align:start;writing-mode:lr-tb;text-anchor:start;fill:#484848;fill-opacity:1;stroke-width:0.77068853px"
       id="path103"
       inkscape:connector-curvature="0" />
    <path
       d="m 231.46893,67.18146 h -6.82522 q 0.0185,1.775667 0.81385,2.681996 0.81385,0.90633 2.34906,0.90633 1.62769,0 2.99644,-1.091295 l 0.4994,1.091295 q -0.61038,0.573392 -1.5722,0.90633 -0.94332,0.332937 -1.94214,0.332937 -2.18259,0 -3.42185,-1.27626 -1.23927,-1.294757 -1.23927,-3.532836 0,-1.424233 0.5549,-2.515528 0.55489,-1.109791 1.5537,-1.720176 0.99882,-0.610386 2.27508,-0.610386 1.84965,0 2.90395,1.220771 1.0543,1.202274 1.0543,3.329374 z m -3.93976,-3.662312 q -1.16528,0 -1.90514,0.702868 -0.72136,0.702868 -0.92483,1.979129 h 5.41949 q -0.11098,-1.313254 -0.77686,-1.997625 -0.64738,-0.684372 -1.81266,-0.684372 z"
       style="font-style:normal;font-variant:normal;font-weight:normal;font-stretch:normal;font-size:18.49652481px;font-family:Muli;-inkscape-font-specification:'Muli, Normal';font-variant-ligatures:normal;font-variant-caps:normal;font-variant-numeric:normal;font-feature-settings:normal;text-align:start;writing-mode:lr-tb;text-anchor:start;fill:#484848;fill-opacity:1;stroke-width:0.77068853px"
       id="path105"
       inkscape:connector-curvature="0" />
    <path
       d="m 241.54809,67.18146 h -6.82521 q 0.0185,1.775667 0.81384,2.681996 0.81385,0.90633 2.34906,0.90633 1.6277,0 2.99644,-1.091295 l 0.49941,1.091295 q -0.61039,0.573392 -1.57221,0.90633 -0.94332,0.332937 -1.94213,0.332937 -2.18259,0 -3.42186,-1.27626 -1.23927,-1.294757 -1.23927,-3.532836 0,-1.424233 0.5549,-2.515528 0.55489,-1.109791 1.55371,-1.720176 0.99881,-0.610386 2.27507,-0.610386 1.84965,0 2.90395,1.220771 1.0543,1.202274 1.0543,3.329374 z m -3.93976,-3.662312 q -1.16528,0 -1.90514,0.702868 -0.72136,0.702868 -0.92482,1.979129 h 5.41948 q -0.11098,-1.313254 -0.77686,-1.997625 -0.64737,-0.684372 -1.81266,-0.684372 z"
       style="font-style:normal;font-variant:normal;font-weight:normal;font-stretch:normal;font-size:18.49652481px;font-family:Muli;-inkscape-font-specification:'Muli, Normal';font-variant-ligatures:normal;font-variant-caps:normal;font-variant-numeric:normal;font-feature-settings:normal;text-align:start;writing-mode:lr-tb;text-anchor:start;fill:#484848;fill-opacity:1;stroke-width:0.77068853px"
       id="path107"
       inkscape:connector-curvature="0" />
    <path
       d="m 252.03418,58.266135 v 13.613443 h -1.47972 v -1.683184 q -0.40692,0.869337 -1.23927,1.350246 -0.81385,0.462413 -1.90514,0.462413 -1.22077,0 -2.16409,-0.610385 -0.92483,-0.610385 -1.44273,-1.70168 -0.51791,-1.109792 -0.51791,-2.552521 0,-1.442729 0.49941,-2.515527 0.5179,-1.091295 1.46123,-1.683184 0.94332,-0.591889 2.16409,-0.591889 1.09129,0 1.90514,0.48091 0.81385,0.462413 1.22077,1.313253 v -5.881895 z m -4.32819,12.503651 q 1.36875,0 2.10861,-0.924826 0.73986,-0.943323 0.73986,-2.6635 0,-1.70168 -0.73986,-2.626506 -0.73986,-0.943323 -2.10861,-0.943323 -1.36874,0 -2.14559,0.924826 -0.75836,0.924827 -0.75836,2.60801 0,1.720177 0.75836,2.681996 0.77685,0.943323 2.14559,0.943323 z"
       style="font-style:normal;font-variant:normal;font-weight:normal;font-stretch:normal;font-size:18.49652481px;font-family:Muli;-inkscape-font-specification:'Muli, Normal';font-variant-ligatures:normal;font-variant-caps:normal;font-variant-numeric:normal;font-feature-settings:normal;text-align:start;writing-mode:lr-tb;text-anchor:start;fill:#484848;fill-opacity:1;stroke-width:0.77068853px"
       id="path109"
       inkscape:connector-curvature="0" />
    <path
       d="m 258.77818,72.009053 q -1.31325,0 -2.31207,-0.591888 -0.99881,-0.591889 -1.5537,-1.683184 -0.5364,-1.091295 -0.5364,-2.552521 0,-1.461225 0.5364,-2.55252 0.55489,-1.091295 1.5537,-1.683184 0.99882,-0.591889 2.31207,-0.591889 1.31325,0 2.31207,0.591889 0.99881,0.591889 1.53521,1.683184 0.55489,1.091295 0.55489,2.55252 0,1.461226 -0.55489,2.552521 -0.5364,1.091295 -1.53521,1.683184 -0.99882,0.591888 -2.31207,0.591888 z m 0,-1.239267 q 1.38724,0 2.1271,-0.90633 0.73986,-0.924826 0.73986,-2.681996 0,-1.70168 -0.75836,-2.626506 -0.75835,-0.943323 -2.1086,-0.943323 -1.36874,0 -2.1271,0.943323 -0.75836,0.924826 -0.75836,2.626506 0,1.75717 0.73986,2.681996 0.75836,0.90633 2.1456,0.90633 z"
       style="font-style:normal;font-variant:normal;font-weight:normal;font-stretch:normal;font-size:18.49652481px;font-family:Muli;-inkscape-font-specification:'Muli, Normal';font-variant-ligatures:normal;font-variant-caps:normal;font-variant-numeric:normal;font-feature-settings:normal;text-align:start;writing-mode:lr-tb;text-anchor:start;fill:#484848;fill-opacity:1;stroke-width:0.77068853px"
       id="path111"
       inkscape:connector-curvature="0" />
    <path
       d="m 275.83689,62.353867 q 3.08892,0 3.08892,3.680809 v 5.844902 h -1.49821 v -5.770916 q 0,-1.313253 -0.46242,-1.905142 -0.44391,-0.591889 -1.46122,-0.591889 -1.18378,0 -1.84966,0.795351 -0.66587,0.79535 -0.66587,2.164093 v 5.308503 h -1.49822 v -5.770916 q 0,-1.294757 -0.46241,-1.886646 -0.46241,-0.610385 -1.47972,-0.610385 -1.18378,0 -1.86815,0.795351 -0.66588,0.79535 -0.66588,2.164093 v 5.308503 h -1.49822 v -6.695742 q 0,-1.442729 -0.14797,-2.60801 h 1.42423 l 0.14798,1.627694 q 0.38842,-0.887833 1.14678,-1.368743 0.77685,-0.48091 1.79416,-0.48091 1.1098,0 1.81266,0.443917 0.70287,0.443917 1.03581,1.368743 0.42542,-0.832344 1.23927,-1.313253 0.83234,-0.499407 1.86814,-0.499407 z"
       style="font-style:normal;font-variant:normal;font-weight:normal;font-stretch:normal;font-size:18.49652481px;font-family:Muli;-inkscape-font-specification:'Muli, Normal';font-variant-ligatures:normal;font-variant-caps:normal;font-variant-numeric:normal;font-feature-settings:normal;text-align:start;writing-mode:lr-tb;text-anchor:start;fill:#484848;fill-opacity:1;stroke-width:0.77068853px"
       id="path113"
       inkscape:connector-curvature="0" />
  </g>
</svg>
